<svg width="22" height="24" viewBox="0 0 22 24" fill="none" xmlns="http://www.w3.org/2000/svg">
<path fill-rule="evenodd" clip-rule="evenodd" d="M10.5358 0C8.51092 0 6.97045 1.73272 6.97045 3.74146C6.97045 4.74428 7.34744 5.7218 7.95611 6.45659C8.5651 7.19177 9.46803 7.75067 10.5358 7.75067C11.6035 7.75067 12.5064 7.19177 13.1154 6.45659C13.7241 5.7218 14.1011 4.74428 14.1011 3.74146C14.1011 1.73272 12.5606 0 10.5358 0ZM8.83061 3.74146C8.83061 2.64484 9.64981 1.86016 10.5358 1.86016C11.4217 1.86016 12.2409 2.64484 12.2409 3.74146C12.2409 4.29132 12.028 4.85336 11.6829 5.26996C11.3381 5.68618 10.9234 5.89051 10.5358 5.89051C10.1481 5.89051 9.73341 5.68618 9.38863 5.26996C9.04354 4.85336 8.83061 4.29132 8.83061 3.74146Z" fill="#EF7495"/>
<path fill-rule="evenodd" clip-rule="evenodd" d="M10.9813 23.8864C11.0023 23.8749 11.0227 23.8627 11.0426 23.8498C12.9157 22.6454 15.0957 22.005 17.3227 22.005H18.0971C19.0578 22.005 19.8366 21.2262 19.8366 20.2655V18.3765C20.5779 17.9476 21.0767 17.1461 21.0767 16.2281V14.1411C21.0767 13.223 20.5779 12.4215 19.8366 11.9927V9.61664C19.8366 8.65833 19.0597 7.88146 18.1014 7.88146H17.3441C14.9471 7.88146 12.5974 8.52138 10.5358 9.73005C8.47414 8.52138 6.12439 7.88146 3.72745 7.88146H2.97015C2.01183 7.88146 1.23496 8.65833 1.23496 9.61664V11.9956C0.496462 12.4252 0 13.2252 0 14.1411V16.2281C0 17.144 0.496461 17.9439 1.23496 18.3735V20.2655C1.23496 21.2262 2.01375 22.005 2.97444 22.005H3.74878C5.97718 22.005 8.15852 22.6462 10.0325 23.8521C10.3186 24.0362 10.6825 24.0494 10.9813 23.8864ZM4.96043 14.1411C4.96043 12.9835 4.16746 12.0112 3.09512 11.7377V9.74162H3.72745C5.79733 9.74162 7.82637 10.2953 9.60568 11.3411V21.4845C7.78545 20.6058 5.78404 20.1448 3.74878 20.1448H3.09512V18.6315C4.16746 18.3579 4.96043 17.3856 4.96043 16.2281V14.1411ZM16.1162 16.2281C16.1162 17.3838 16.9067 18.3548 17.9764 18.6301V20.1448H17.3227C15.2875 20.1448 13.2861 20.6058 11.4658 21.4845V11.3411C13.2451 10.2953 15.2742 9.74162 17.3441 9.74162H17.9764V11.739C16.9067 12.0143 16.1162 12.9854 16.1162 14.1411V16.2281ZM18.5965 13.521C18.254 13.521 17.9764 13.7986 17.9764 14.1411V16.2281C17.9764 16.5705 18.254 16.8481 18.5965 16.8481C18.9389 16.8481 19.2165 16.5705 19.2165 16.2281V14.1411C19.2165 13.7986 18.9389 13.521 18.5965 13.521ZM2.48021 13.521C2.13777 13.521 1.86016 13.7986 1.86016 14.1411V16.2281C1.86016 16.5705 2.13777 16.8481 2.48021 16.8481C2.82266 16.8481 3.10027 16.5705 3.10027 16.2281V14.1411C3.10027 13.7986 2.82266 13.521 2.48021 13.521Z" fill="#EF7495"/>
</svg>
