<svg width="26" height="24" viewBox="0 0 26 24" fill="none" xmlns="http://www.w3.org/2000/svg">
<path d="M4.8663 9.72689C5.89193 5.48695 9.72377 2.33325 14.2984 2.33325C19.6596 2.33325 24.0002 6.66426 24.0002 11.9999C24.0002 17.3356 19.6596 21.6666 14.2984 21.6666C12.217 21.6666 10.2916 21.0146 8.71269 19.9048C8.26086 19.5872 7.63711 19.696 7.31951 20.1478C7.00191 20.5996 7.11072 21.2234 7.56254 21.541C9.46762 22.8801 11.7925 23.6666 14.2984 23.6666C20.758 23.6666 26.0002 18.4463 26.0002 11.9999C26.0002 5.5535 20.758 0.333252 14.2984 0.333252C8.85219 0.333252 4.27179 4.04366 2.96832 9.07165L1.80047 7.51179C1.46948 7.06968 0.842751 6.97961 0.400643 7.31061C-0.041464 7.64161 -0.131536 8.26833 0.199462 8.71044L2.80388 12.1891C3.10534 12.5918 3.65899 12.7078 4.0968 12.4601L7.92115 10.2965C8.40183 10.0245 8.57105 9.4144 8.2991 8.93371C8.02714 8.45302 7.41701 8.28381 6.93632 8.55576L4.8663 9.72689Z" fill="#EF7495"/>
<path d="M14.0002 7.99992C14.0002 7.44763 13.5525 6.99992 13.0002 6.99992C12.448 6.99992 12.0002 7.44763 12.0002 7.99992V13.6666C12.0002 14.2189 12.448 14.6666 13.0002 14.6666H18.6669C19.2192 14.6666 19.6669 14.2189 19.6669 13.6666C19.6669 13.1143 19.2192 12.6666 18.6669 12.6666H14.0002V7.99992Z" fill="#EF7495"/>
</svg>
