<svg width="27" height="24" viewBox="0 0 27 24" fill="none" xmlns="http://www.w3.org/2000/svg">
<path d="M2.69314 0.99855C2.69314 0.447066 3.14541 0 3.70331 0H23.2339C25.2796 0 26.9379 1.63924 26.9379 3.66135V20.3039C26.9379 22.326 25.2796 23.9652 23.2339 23.9652H13.1322C12.5743 23.9652 12.122 23.5181 12.122 22.9667C12.122 22.4152 12.5743 21.9681 13.1322 21.9681H23.2339C24.1638 21.9681 24.9175 21.223 24.9175 20.3039V3.66135C24.9175 2.74221 24.1638 1.9971 23.2339 1.9971H3.70331C3.14541 1.9971 2.69314 1.55003 2.69314 0.99855Z" fill="#EF7495"/>
<path fill-rule="evenodd" clip-rule="evenodd" d="M4.0407 4.0085C1.99505 4.0085 0.336725 5.64775 0.336725 7.66986C0.336725 9.69196 1.99505 11.3312 4.0407 11.3312C6.08634 11.3312 7.74467 9.69196 7.74467 7.66986C7.74467 5.64775 6.08634 4.0085 4.0407 4.0085ZM2.35707 7.66986C2.35707 6.75072 3.11086 6.0056 4.0407 6.0056C4.97054 6.0056 5.72432 6.75072 5.72432 7.66986C5.72432 8.589 4.97054 9.33411 4.0407 9.33411C3.11086 9.33411 2.35707 8.589 2.35707 7.66986Z" fill="#EF7495"/>
<path d="M11.7854 4.0085C11.2275 4.0085 10.7752 4.45557 10.7752 5.00705C10.7752 5.55854 11.2275 6.0056 11.7854 6.0056L21.8871 6.00561C22.445 6.00561 22.8973 5.55854 22.8973 5.00705C22.8973 4.45557 22.445 4.0085 21.8871 4.0085L11.7854 4.0085Z" fill="#EF7495"/>
<path d="M21.8872 9.3198H17.173C16.6151 9.3198 16.1628 8.87274 16.1628 8.32125C16.1628 7.76977 16.6151 7.3227 17.173 7.3227H21.8872C22.4451 7.3227 22.8973 7.76977 22.8973 8.32125C22.8973 8.87274 22.4451 9.3198 21.8872 9.3198Z" fill="#EF7495"/>
<path fill-rule="evenodd" clip-rule="evenodd" d="M16.7735 11.7058C16.1185 10.8116 15.0615 10.6236 14.2161 10.7518C13.6737 10.8341 13.1694 11.0778 12.7706 11.4505L10.5264 13.5477L10.5083 13.565L7.98188 12.6737C7.86581 12.6328 7.74314 12.6132 7.61993 12.6159L3.32408 12.7101C2.22775 12.7144 1.38934 13.3019 0.86108 13.9312C0.350995 14.5388 0 15.3377 0 16.0325V23.0014C0 23.5529 0.45227 24 1.01017 24H7.72513C8.28304 24 8.73531 23.5529 8.73531 23.0014V19.1896L11.0935 19.8853C11.6992 20.064 12.3552 19.8923 12.792 19.4406L16.3435 15.7684C16.775 15.3223 17.1655 14.7607 17.3359 14.1114C17.5153 13.4283 17.4367 12.689 16.9842 12.0079C16.9156 11.9046 16.8449 11.8033 16.7735 11.7058ZM14.5225 12.7258C14.8953 12.6693 15.0692 12.7844 15.1371 12.8771C15.1903 12.9496 15.2435 13.0259 15.2954 13.104C15.4114 13.2786 15.4274 13.4306 15.3804 13.6097C15.3244 13.8228 15.1674 14.0945 14.8832 14.3884L11.4739 17.9134L9.26826 17.2627L9.21344 17.2464C9.01253 17.1866 8.76202 17.1121 8.54024 17.0785C8.29519 17.0414 7.82397 17.0093 7.40218 17.3375L7.38734 17.3489C7.29286 17.4216 7.05376 17.6055 6.89653 17.9346C6.7474 18.2467 6.71496 18.589 6.71496 18.92V22.0029H2.02035V16.0325C2.02035 15.9227 2.11937 15.5597 2.41586 15.2065C2.69219 14.8773 3.01259 14.7071 3.3364 14.7071L3.3588 14.7069L7.47835 14.6166L9.84572 15.4519L9.8625 15.4575C10.5833 15.6978 11.3791 15.5174 11.9219 14.9918L14.1586 12.9017C14.259 12.8079 14.3859 12.7465 14.5225 12.7258Z" fill="#EF7495"/>
</svg>
