<svg width="24" height="18" viewBox="0 0 24 18" fill="none" xmlns="http://www.w3.org/2000/svg">
<path d="M4.92795 1.70701C5.31842 1.31643 5.31833 0.683266 4.92775 0.292796C4.53718 -0.0976748 3.90401 -0.0975874 3.51354 0.292991C1.34375 2.46338 0 5.46426 0 8.77709C0 12.0899 1.34375 15.0908 3.51354 17.2612C3.90401 17.6518 4.53718 17.6519 4.92775 17.2614C5.31833 16.8709 5.31842 16.2378 4.92795 15.8472C3.11779 14.0365 2 11.5383 2 8.77709C2 6.01589 3.11779 3.51767 4.92795 1.70701Z" fill="#EF7495"/>
<path d="M20.4865 0.292991C20.096 -0.0975869 19.4628 -0.0976744 19.0722 0.292796C18.6817 0.683266 18.6816 1.31643 19.0721 1.70701C20.8822 3.51767 22 6.01589 22 8.77709C22 11.5383 20.8822 14.0365 19.0721 15.8472C18.6816 16.2378 18.6817 16.8709 19.0722 17.2614C19.4628 17.6519 20.096 17.6518 20.4865 17.2612C22.6562 15.0908 24 12.0899 24 8.77709C24 5.46426 22.6562 2.46338 20.4865 0.292991Z" fill="#EF7495"/>
<path d="M8.48065 3.81582C8.86991 4.20761 8.86785 4.84078 8.47606 5.23003C7.56331 6.13687 7 7.39027 7 8.77712C7 10.164 7.56331 11.4174 8.47606 12.3242C8.86785 12.7135 8.86991 13.3466 8.48065 13.7384C8.0914 14.1302 7.45824 14.1323 7.06645 13.743C5.7913 12.4761 5 10.7181 5 8.77712C5 6.83615 5.7913 5.07812 7.06645 3.81123C7.45824 3.42198 8.0914 3.42403 8.48065 3.81582Z" fill="#EF7495"/>
<path d="M15.5193 3.81582C15.9086 3.42403 16.5418 3.42198 16.9336 3.81123C18.2087 5.07812 19 6.83615 19 8.77712C19 10.7181 18.2087 12.4761 16.9336 13.743C16.5418 14.1323 15.9086 14.1302 15.5193 13.7384C15.1301 13.3466 15.1322 12.7135 15.5239 12.3242C16.4367 11.4174 17 10.164 17 8.77712C17 7.39027 16.4367 6.13687 15.5239 5.23003C15.1322 4.84078 15.1301 4.20761 15.5193 3.81582Z" fill="#EF7495"/>
<path d="M14 8.7771C14 9.88167 13.1046 10.7771 12 10.7771C10.8954 10.7771 10 9.88167 10 8.7771C10 7.67253 10.8954 6.7771 12 6.7771C13.1046 6.7771 14 7.67253 14 8.7771Z" fill="#EF7495"/>
</svg>
