<svg width="21" height="24" viewBox="0 0 21 24" fill="none" xmlns="http://www.w3.org/2000/svg">
<path d="M6.36191 7.23227C6.36191 6.75314 5.97351 6.36474 5.49438 6.36474C5.01525 6.36474 4.62685 6.75315 4.62685 7.23227L4.62685 8.96545C4.62685 9.44458 5.01526 9.83298 5.49438 9.83298C5.97351 9.83298 6.36192 9.44458 6.36192 8.96545L6.36191 7.23227Z" fill="#EF7495"/>
<path fill-rule="evenodd" clip-rule="evenodd" d="M3.05416 0.867534C3.05416 0.388408 3.44257 0 3.92169 0H7.05325C7.53238 0 7.92078 0.388408 7.92078 0.867534C7.92078 1.34666 7.53238 1.73507 7.05325 1.73507H6.34073V2.95303C8.97336 3.36007 10.9888 5.63599 10.9888 8.38263C10.9888 11.4171 8.52884 13.877 5.49438 13.877C2.45992 13.877 0 11.4171 0 8.38263C0 5.65074 1.99381 3.38453 4.60567 2.95975V1.73507H3.92169C3.44257 1.73507 3.05416 1.34666 3.05416 0.867534ZM1.73507 8.38263C1.73507 6.30642 3.41817 4.62332 5.49438 4.62332C7.57059 4.62332 9.25369 6.30642 9.25369 8.38263C9.25369 10.4588 7.57059 12.1419 5.49438 12.1419C3.41817 12.1419 1.73507 10.4588 1.73507 8.38263Z" fill="#EF7495"/>
<path d="M4.91602 24C3.47865 24 2.31342 22.8348 2.31342 21.3974V16.1505C2.31342 15.6714 2.70183 15.283 3.18096 15.283C3.66008 15.283 4.04849 15.6714 4.04849 16.1505V21.3974C4.04849 21.8765 4.4369 22.2649 4.91602 22.2649L18.2182 22.2649C18.6973 22.2649 19.0857 21.8765 19.0857 21.3974V4.04672C19.0857 3.5676 18.6973 3.17919 18.2182 3.17919H12.3939C11.9148 3.17919 11.5264 2.79078 11.5264 2.31165C11.5264 1.83253 11.9148 1.44412 12.3939 1.44412H18.2182C19.6556 1.44412 20.8208 2.60934 20.8208 4.04672V21.3974C20.8208 22.8348 19.6556 24 18.2182 24L4.91602 24Z" fill="#EF7495"/>
<path d="M10.9184 13.3173C10.4393 13.3173 10.0509 13.7057 10.0509 14.1848C10.0509 14.6639 10.4393 15.0524 10.9184 15.0524H16.702C17.1811 15.0524 17.5695 14.6639 17.5695 14.1848C17.5695 13.7057 17.1811 13.3173 16.702 13.3173H10.9184Z" fill="#EF7495"/>
<path d="M12.895 10.6957C12.895 10.2166 13.2834 9.82817 13.7625 9.82817H16.7019C17.181 9.82817 17.5694 10.2166 17.5694 10.6957C17.5694 11.1748 17.181 11.5632 16.7019 11.5632H13.7625C13.2834 11.5632 12.895 11.1748 12.895 10.6957Z" fill="#EF7495"/>
<path d="M7.8078 16.7726C7.32868 16.7726 6.94027 17.161 6.94027 17.6401C6.94027 18.1193 7.32868 18.5077 7.8078 18.5077H16.7723C17.2514 18.5077 17.6399 18.1193 17.6399 17.6401C17.6399 17.161 17.2514 16.7726 16.7723 16.7726H7.8078Z" fill="#EF7495"/>
</svg>
